<svg width="13" height="13" fill="none" xmlns="http://www.w3.org/2000/svg"><path d="M9.48 1.625a2.98 2.98 0 0 1 2.978 2.98c0 1.215-.632 2.39-1.576 2.617-.365.088-.655.555-.592 1.089.083.714.729 1.435 2.008 2.004.284.127.165.555-.144.516C8.82 10.414 6.51 8.241 6.5 5.168c0-2.115 1.25-3.543 2.98-3.543Zm-6.5 0a2.98 2.98 0 0 1 2.978 2.98c0 1.215-.632 2.39-1.576 2.617-.365.088-.655.555-.592 1.089.083.714.729 1.435 2.007 2.004.285.127.166.555-.143.516C2.32 10.414.01 8.241 0 5.168c0-2.115 1.25-3.543 2.98-3.543Z" fill="#C19A6B"/></svg>