<svg width="14" height="21" fill="none" xmlns="http://www.w3.org/2000/svg"><path d="M10.117.628c.206-.195.454-.351.73-.459a2.473 2.473 0 0 1 1.747-.021c.278.1.53.25.743.44.213.19.38.414.493.663.173.376.215.79.12 1.187a1.97 1.97 0 0 1-.648 1.04l-7.493 6.695a.497.497 0 0 0-.168.36c0 .067.015.133.044.195a.47.47 0 0 0 .124.165l7.493 6.704c.323.309.53.7.592 1.12.062.42-.025.846-.248 1.219a2.163 2.163 0 0 1-.996.859 2.486 2.486 0 0 1-1.367.176 2.462 2.462 0 0 1-1.229-.642L.716 11.973a2.023 2.023 0 0 1-.675-1.1 1.79 1.79 0 0 1 .057-.967 2 2 0 0 1 .555-.828l9.464-8.45Z" fill="#8C8C8C"/></svg>