<svg width="80" height="72" fill="none" xmlns="http://www.w3.org/2000/svg"><path d="M79.465 24.671a1.291 1.291 0 0 0-1.162-.177l-3.187 1.058a12.86 12.86 0 0 0 1.013-4.981 14.524 14.524 0 0 0-1.05-5.436l-1.622-4.041a1.286 1.286 0 0 0-.836-.756 1.28 1.28 0 0 0-1.113.186l-3.134 2.232a13.04 13.04 0 0 0-2.868-7.864A13.12 13.12 0 0 0 58.44.374L57.087.038a1.295 1.295 0 0 0-1.536.84l-.537 1.605a15.857 15.857 0 0 0 1.457 13.225l.337.562a6.256 6.256 0 0 0 2.276 2.206 6.284 6.284 0 0 0 3.07.81c.281-.01.562-.038.84-.086a13.7 13.7 0 0 0-1.059 5.228 6.414 6.414 0 0 0 1.366 3.932 6.454 6.454 0 0 0 3.496 2.276c-.04.04-.086.073-.129.113a7.276 7.276 0 0 0-2.152 5.184 6.423 6.423 0 0 0 1.591 4.204 18.01 18.01 0 0 0-3.845 1.029 6.586 6.586 0 0 0-4.19 6.457 6.57 6.57 0 0 0 .693 2.628 19.388 19.388 0 0 0-1.99-.108 6.453 6.453 0 0 0-4.375 1.725 6.41 6.41 0 0 0-2.03 4.229c-.038-.04-.072-.084-.112-.122a6.743 6.743 0 0 0-5.324-1.953A6.756 6.756 0 0 0 40 56.812a6.73 6.73 0 0 0-4.933-2.79 6.761 6.761 0 0 0-5.324 1.953c-.04.038-.075.082-.113.122a6.408 6.408 0 0 0-2.03-4.23 6.452 6.452 0 0 0-4.374-1.724 19.39 19.39 0 0 0-1.991.113 6.57 6.57 0 0 0-1.218-7.593 6.613 6.613 0 0 0-2.279-1.492 18.036 18.036 0 0 0-3.845-1.029 6.423 6.423 0 0 0 1.59-4.21 7.257 7.257 0 0 0-2.154-5.183c-.04-.04-.086-.073-.129-.113a6.453 6.453 0 0 0 3.498-2.275 6.414 6.414 0 0 0 1.366-3.933 13.7 13.7 0 0 0-1.058-5.228c.278.048.559.077.84.085a6.282 6.282 0 0 0 3.07-.81 6.254 6.254 0 0 0 2.276-2.206l.337-.56a15.877 15.877 0 0 0 1.457-13.227L24.449.88a1.287 1.287 0 0 0-1.536-.841l-1.348.336a13.119 13.119 0 0 0-7.067 4.518 13.038 13.038 0 0 0-2.868 7.863l-3.138-2.23a1.279 1.279 0 0 0-1.113-.187 1.292 1.292 0 0 0-.836.756l-1.622 4.04a14.535 14.535 0 0 0-1.05 5.437c.003 1.71.348 3.404 1.014 4.98l-3.187-1.057a1.294 1.294 0 0 0-1.556.634 1.282 1.282 0 0 0-.142.586v3.27a17.635 17.635 0 0 0 3.871 11.001c.185.228.386.443.6.643-.034.01-.068.014-.102.023l-2.104.525a1.292 1.292 0 0 0-.977 1.167c-.011.18.016.362.08.531l.774 2.07a14.026 14.026 0 0 0 3.868 5.563 14.096 14.096 0 0 0 6.031 3.11c-.384.258-.758.531-1.12.819l-1.42 1.126a1.285 1.285 0 0 0 0 2.008l1.42 1.127A19.796 19.796 0 0 0 23.226 63a6.376 6.376 0 0 0 1.964-.337 21.655 21.655 0 0 0-1.631 5.633l-.32 2.237a1.282 1.282 0 0 0 .741 1.35 1.293 1.293 0 0 0 .72.104l2.243-.32a22.024 22.024 0 0 0 12.368-6.161c.252-.26.483-.538.689-.835.208.297.438.578.69.838a22.023 22.023 0 0 0 12.367 6.16l2.244.32c.06.008.122.012.183.01a1.293 1.293 0 0 0 1.237-.921 1.28 1.28 0 0 0 .04-.545l-.32-2.237a21.655 21.655 0 0 0-1.63-5.633 6.376 6.376 0 0 0 1.963.337 19.796 19.796 0 0 0 12.296-4.298l1.419-1.127a1.286 1.286 0 0 0 .357-1.56 1.287 1.287 0 0 0-.357-.448l-1.42-1.126a18.73 18.73 0 0 0-1.12-.818 14.094 14.094 0 0 0 6.032-3.111 14.026 14.026 0 0 0 3.868-5.564l.774-2.069a1.28 1.28 0 0 0-.416-1.463 1.29 1.29 0 0 0-.487-.235l-2.106-.524c-.032-.01-.067-.015-.1-.022.22-.203.425-.42.615-.65A17.642 17.642 0 0 0 80 28.98v-3.266a1.282 1.282 0 0 0-.535-1.043ZM22.193 2.868l.191-.046.16.473a13.314 13.314 0 0 1-1.223 11.09l-.338.561a3.608 3.608 0 0 1-1.638 1.456 3.625 3.625 0 0 1-2.181.242l3.393-8.452-2.397-.957-3.218 8.017a3.593 3.593 0 0 1-.748-2.178 10.483 10.483 0 0 1 2.234-6.477 10.548 10.548 0 0 1 5.765-3.73ZM7.32 16.089l1.01-2.52 2.452 1.74a11.243 11.243 0 0 1 3.457 3.993 11.2 11.2 0 0 1 1.246 5.126 3.831 3.831 0 0 1-1.161 2.749l-2.777-8.298-2.452.813 2.862 8.559c-.116.01-.23.034-.348.034a3.904 3.904 0 0 1-3.097-1.543 10.327 10.327 0 0 1-2.06-6.171 11.96 11.96 0 0 1 .868-4.482ZM2.58 28.985v-1.488l1.503.5a19.09 19.09 0 0 1 7.42 4.57 4.726 4.726 0 0 1 1.4 3.366 3.88 3.88 0 0 1-.633 2.116l-4.774-6.654-2.094 1.494 4.83 6.74a3.884 3.884 0 0 1-1.27.228 3.927 3.927 0 0 1-3.074-1.474 15.057 15.057 0 0 1-3.308-9.398Zm1.987 15.06-.271-.72.702-.174a19.31 19.31 0 0 1 11.782.407 4.07 4.07 0 0 1 1.689 1.25 4.05 4.05 0 0 1 .838 1.921l-9.905-2.957-.741 2.463 10.184 3.045a4.094 4.094 0 0 1-3.587 2.148 11.5 11.5 0 0 1-6.497-2.035 11.437 11.437 0 0 1-4.194-5.347ZM12.543 56.7l-.156-.129.155-.128a17.2 17.2 0 0 1 10.684-3.729 3.88 3.88 0 0 1 2.225.712 3.86 3.86 0 0 1 1.408 1.86h-8.795v2.57h8.795a3.86 3.86 0 0 1-1.408 1.86 3.88 3.88 0 0 1-2.225.712A17.2 17.2 0 0 1 12.543 56.7Zm24.942 6.994a19.442 19.442 0 0 1-10.904 5.428l-.542.076.077-.538a19.292 19.292 0 0 1 5.456-10.869 4.069 4.069 0 0 1 4.165-1.022l-5.746 6.68 1.959 1.67 5.912-6.873a4.123 4.123 0 0 1-.374 5.44l-.003.008Zm15.934 5.428a19.433 19.433 0 0 1-10.905-5.433 4.126 4.126 0 0 1-.376-5.44l5.912 6.873 1.959-1.67-5.746-6.68A4.081 4.081 0 0 1 48.43 57.8a19.292 19.292 0 0 1 5.456 10.857l.078.54-.545-.075ZM67.457 56.7a17.2 17.2 0 0 1-10.683 3.728 3.88 3.88 0 0 1-2.225-.712 3.86 3.86 0 0 1-1.408-1.86h8.794v-2.57h-8.794a3.86 3.86 0 0 1 1.408-1.86 3.88 3.88 0 0 1 2.225-.712 17.2 17.2 0 0 1 10.683 3.729l.155.128-.155.129ZM59.02 14.952l-.338-.562A13.326 13.326 0 0 1 57.46 3.301l.158-.474.191.046a10.548 10.548 0 0 1 5.762 3.728 10.482 10.482 0 0 1 2.234 6.473 3.591 3.591 0 0 1-.744 2.178l-3.218-8.017-2.398.957 3.394 8.452a3.625 3.625 0 0 1-2.181-.242 3.609 3.609 0 0 1-1.638-1.455v.005Zm10.204.363 2.451-1.74 1.01 2.52c.572 1.424.865 2.943.862 4.476a10.327 10.327 0 0 1-2.064 6.171 3.891 3.891 0 0 1-3.097 1.543c-.119 0-.232-.024-.348-.034l2.862-8.56-2.452-.812-2.772 8.298a3.843 3.843 0 0 1-1.16-2.749c0-1.783.429-3.54 1.247-5.126a11.237 11.237 0 0 1 3.46-3.992v.005Zm6.478 28.013-.27.72a11.436 11.436 0 0 1-4.195 5.346 11.5 11.5 0 0 1-6.497 2.034 4.094 4.094 0 0 1-3.587-2.152l10.184-3.045-.74-2.463-9.906 2.957a4.051 4.051 0 0 1 2.534-3.167 15.847 15.847 0 0 1 5.884-1.13c1.986 0 3.964.243 5.891.723l.702.177Zm1.716-14.343a15.064 15.064 0 0 1-3.307 9.398 3.92 3.92 0 0 1-3.076 1.474 3.885 3.885 0 0 1-1.27-.228l4.831-6.74-2.098-1.494-4.774 6.654a3.88 3.88 0 0 1-.628-2.116 4.712 4.712 0 0 1 1.399-3.366 19.09 19.09 0 0 1 7.42-4.57l1.503-.5v1.488Z" fill="#C5C7C4"/></svg>