<svg width="14" height="21" viewBox="0 0 14 21" fill="none" xmlns="http://www.w3.org/2000/svg">
<path d="M10.1169 0.628155C10.3235 0.433091 10.5715 0.277046 10.8464 0.169203C11.1213 0.0613591 11.4175 0.00389488 11.7175 0.000191218C12.0175 -0.00351244 12.3154 0.0466193 12.5935 0.147637C12.8716 0.248654 13.1243 0.398516 13.3369 0.588406C13.5495 0.77713 13.7172 1.00248 13.8301 1.25088C14.0031 1.62661 14.0452 2.04047 13.9509 2.43805C13.8566 2.83564 13.6303 3.19833 13.3018 3.47846L5.80875 10.1728C5.75544 10.2199 5.71333 10.2763 5.68498 10.3384C5.65576 10.3999 5.6407 10.4661 5.6407 10.533C5.6407 10.5999 5.65576 10.6661 5.68498 10.7276C5.71256 10.7901 5.75477 10.8466 5.80875 10.8932L13.3018 17.5975C13.6253 17.9057 13.8326 18.2972 13.8944 18.7168C13.9562 19.1364 13.8693 19.5627 13.6461 19.9357C13.4229 20.3086 13.0747 20.6092 12.6505 20.795C12.2264 20.9808 11.7479 21.0424 11.2826 20.9712C10.8098 20.8738 10.3813 20.6496 10.054 20.3286L0.715508 11.9731C0.369342 11.6778 0.133768 11.2936 0.041212 10.8734C-0.0289633 10.5517 -0.00928943 10.2194 0.098481 9.90614C0.205978 9.59406 0.39613 9.30994 0.652697 9.07805L10.1169 0.628155Z" fill="#8C8C8C"/>
</svg>
