<svg width="13" height="13" viewBox="0 0 13 13" fill="none" xmlns="http://www.w3.org/2000/svg">
<g clip-path="url(#clip0_2555_1856)">
<path d="M6.5 2.2915C4.17942 2.2915 2.2915 4.17942 2.2915 6.5C2.2915 8.82058 4.17942 10.7085 6.5 10.7085C8.82058 10.7085 10.7085 8.82058 10.7085 6.5C10.7085 4.17942 8.82058 2.2915 6.5 2.2915ZM8.39889 6.5L6.5 8.39889L4.60111 6.5L6.5 4.60111L8.39889 6.5Z" fill="#313131"/>
<path d="M11.0962 1.90379C9.8685 0.676127 8.23621 0 6.5 0C4.76379 0 3.1315 0.676127 1.90379 1.90379C0.676127 3.1315 0 4.76379 0 6.5C0 8.23621 0.676127 9.8685 1.90379 11.0962C3.1315 12.3239 4.76379 13 6.5 13C8.23621 13 9.8685 12.3239 11.0962 11.0962C12.3239 9.8685 13 8.23621 13 6.5C13 4.76379 12.3239 3.1315 11.0962 1.90379ZM6.5 11.4702C3.75941 11.4702 1.52979 9.24059 1.52979 6.5C1.52979 3.75941 3.75941 1.52979 6.5 1.52979C9.24059 1.52979 11.4702 3.75941 11.4702 6.5C11.4702 9.24059 9.24059 11.4702 6.5 11.4702Z" fill="#313131"/>
</g>
<defs>
<clipPath id="clip0_2555_1856">
<rect width="13" height="13" fill="white"/>
</clipPath>
</defs>
</svg>
