<svg width="16" height="16" viewBox="0 0 16 16" fill="none" xmlns="http://www.w3.org/2000/svg">
<path d="M8 0C5.96788 0.00384388 4.01339 0.780875 2.53333 2.17333V0.84C2.53333 0.663189 2.4631 0.49362 2.33807 0.368595C2.21305 0.243571 2.04348 0.173333 1.86667 0.173333C1.68986 0.173333 1.52029 0.243571 1.39526 0.368595C1.27024 0.49362 1.2 0.663189 1.2 0.84V3.83333C1.2 4.01014 1.27024 4.17971 1.39526 4.30474C1.52029 4.42976 1.68986 4.5 1.86667 4.5H4.86C5.03681 4.5 5.20638 4.42976 5.3314 4.30474C5.45643 4.17971 5.52667 4.01014 5.52667 3.83333C5.52667 3.65652 5.45643 3.48695 5.3314 3.36193C5.20638 3.2369 5.03681 3.16667 4.86 3.16667H3.42C4.53529 2.11225 5.98024 1.47495 7.51092 1.36235C9.04161 1.24976 10.5643 1.66877 11.8218 2.54864C13.0794 3.42852 13.9949 4.71536 14.4137 6.19194C14.8325 7.66851 14.729 9.24437 14.1206 10.6535C13.5123 12.0626 12.4364 13.2186 11.0745 13.9264C9.71263 14.6343 8.14825 14.8505 6.64545 14.5387C5.14265 14.2268 3.79347 13.406 2.82569 12.2147C1.8579 11.0235 1.33079 9.53482 1.33333 8C1.33333 7.82319 1.2631 7.65362 1.13807 7.52859C1.01305 7.40357 0.843478 7.33333 0.666667 7.33333C0.489856 7.33333 0.320286 7.40357 0.195262 7.52859C0.070238 7.65362 0 7.82319 0 8C0 9.58225 0.469192 11.129 1.34824 12.4446C2.22729 13.7602 3.47672 14.7855 4.93853 15.391C6.40034 15.9965 8.00887 16.155 9.56072 15.8463C11.1126 15.5376 12.538 14.7757 13.6569 13.6569C14.7757 12.538 15.5376 11.1126 15.8463 9.56072C16.155 8.00887 15.9965 6.40034 15.391 4.93853C14.7855 3.47672 13.7602 2.22729 12.4446 1.34824C11.129 0.469192 9.58225 0 8 0Z" fill="#828282"/>
<path d="M8.00005 4.6665C7.82324 4.6665 7.65367 4.73674 7.52865 4.86177C7.40363 4.98679 7.33339 5.15636 7.33339 5.33317V8.75317C7.33024 8.90913 7.38189 9.06126 7.47934 9.18308C7.57679 9.30489 7.71387 9.38867 7.86672 9.41984L11.4201 10.1332H11.5534C11.7302 10.1509 11.9068 10.0976 12.0443 9.98505C12.1818 9.87253 12.269 9.70998 12.2867 9.53317C12.3044 9.35636 12.2511 9.17977 12.1386 9.04224C12.0261 8.90471 11.8635 8.81752 11.6867 8.79984L8.66672 8.2065V5.33317C8.66672 5.15636 8.59648 4.98679 8.47146 4.86177C8.34643 4.73674 8.17687 4.6665 8.00005 4.6665Z" fill="#828282"/>
</svg>
