<svg width="80" height="72" viewBox="0 0 80 72" fill="none" xmlns="http://www.w3.org/2000/svg">
<path d="M79.4645 24.6712C79.2989 24.5521 79.1072 24.4739 78.9053 24.4431C78.7034 24.4123 78.4971 24.4296 78.3032 24.4937L75.1161 25.5519C75.7819 23.9749 76.1262 22.2818 76.129 20.571C76.1308 18.7087 75.7742 16.8634 75.0787 15.135L73.4568 11.0939C73.384 10.913 73.2709 10.7509 73.1261 10.62C72.9812 10.489 72.8084 10.3926 72.6206 10.3379C72.4333 10.282 72.2356 10.2697 72.0427 10.3021C71.8499 10.3344 71.667 10.4104 71.5084 10.5244L68.3742 12.7564C68.309 9.89263 67.3013 7.12956 65.5062 4.89223C63.711 2.6549 61.2279 1.06728 58.4387 0.373595L57.0865 0.0380218C56.7713 -0.0400934 56.4381 0.00309019 56.1535 0.158954C55.8689 0.314818 55.6537 0.571898 55.551 0.878883L55.0142 2.48346C54.2848 4.66201 54.0374 6.97206 54.2889 9.25492C54.5403 11.5378 55.2847 13.7393 56.471 15.7084L56.8077 16.2703C57.364 17.1879 58.148 17.9474 59.0843 18.4755C60.0206 19.0035 61.0777 19.2824 62.1535 19.2853C62.4352 19.2766 62.7159 19.2483 62.9935 19.2004C62.3016 20.8574 61.9422 22.6334 61.9355 24.4282C61.9406 25.8535 62.421 27.2368 63.301 28.3604C64.1811 29.4841 65.4111 30.2844 66.7974 30.6356C66.7574 30.6755 66.711 30.7089 66.6684 30.7488C65.9833 31.428 65.4403 32.236 65.0709 33.1258C64.7014 34.0157 64.5129 34.9698 64.5161 35.9328C64.5224 37.4792 65.0871 38.9716 66.1071 40.1371C64.7911 40.3369 63.5014 40.6819 62.2619 41.1657C61.4066 41.5 60.6305 42.0082 59.9833 42.658C59.3361 43.3078 58.8319 44.0849 58.5029 44.9397C58.1738 45.7945 58.0272 46.7083 58.0724 47.6227C58.1176 48.5371 58.3535 49.4321 58.7652 50.2506C58.1038 50.1805 57.4393 50.1444 56.7742 50.1426C55.15 50.1477 53.5878 50.7641 52.4003 51.8682C51.2128 52.9723 50.4878 54.4826 50.3703 56.0967C50.3316 56.0569 50.2981 56.0132 50.2581 55.9746C49.5664 55.2831 48.7317 54.7502 47.8122 54.413C46.8926 54.0758 45.9104 53.9425 44.9338 54.0223C43.9573 54.1021 43.01 54.3931 42.1579 54.8751C41.3058 55.357 40.5694 56.0183 40 56.8129C39.4308 56.0184 38.6945 55.3571 37.8425 54.8751C36.9905 54.3932 36.0433 54.1022 35.0668 54.0224C34.0904 53.9426 33.1082 54.0759 32.1888 54.413C31.2694 54.7502 30.4348 55.2831 29.7432 55.9746C29.7032 56.0132 29.6684 56.0569 29.6297 56.0967C29.5125 54.4825 28.7876 52.972 27.6 51.8678C26.4125 50.7637 24.85 50.1474 23.2258 50.1426C22.5606 50.1461 21.8961 50.1839 21.2348 50.2557C21.6465 49.4372 21.8824 48.5422 21.9276 47.6278C21.9728 46.7134 21.8262 45.7997 21.4971 44.9449C21.1681 44.0901 20.6639 43.313 20.0167 42.6632C19.3695 42.0133 18.5934 41.5051 17.7381 41.1708C16.4985 40.6872 15.2089 40.3422 13.8929 40.1422C14.914 38.9754 15.4789 37.4809 15.4839 35.9328C15.4868 34.9696 15.2978 34.0154 14.9279 33.1255C14.5581 32.2357 14.0146 31.4278 13.329 30.7488C13.289 30.7089 13.2426 30.6755 13.2 30.6356C14.5868 30.2849 15.8173 29.4848 16.6979 28.3611C17.5785 27.2374 18.0593 25.8538 18.0645 24.4282C18.0578 22.6334 17.6984 20.8574 17.0065 19.2004C17.2841 19.2483 17.5648 19.2766 17.8465 19.2853C18.9225 19.2824 19.9796 19.0034 20.916 18.4751C21.8523 17.9467 22.6363 17.187 23.1923 16.269L23.529 15.7084C24.7153 13.7391 25.4597 11.5373 25.7112 9.25426C25.9626 6.97119 25.7152 4.66094 24.9858 2.48218L24.449 0.878883C24.3463 0.571898 24.1311 0.314818 23.8465 0.158954C23.5619 0.00309019 23.2287 -0.0400934 22.9135 0.0380218L21.5652 0.373595C18.7761 1.06702 16.293 2.65441 14.4978 4.89151C12.7027 7.12862 11.6949 9.89151 11.6297 12.7551L8.49161 10.5244C8.3329 10.4105 8.15009 10.3345 7.95725 10.3022C7.76441 10.2699 7.5667 10.2821 7.37935 10.3379C7.19159 10.3926 7.01875 10.489 6.8739 10.62C6.72905 10.7509 6.61597 10.913 6.54323 11.0939L4.92129 15.1337C4.22587 16.8626 3.86933 18.7083 3.87097 20.571C3.87423 22.2819 4.21898 23.975 4.88516 25.5519L1.69806 24.4937C1.50409 24.4293 1.29753 24.4118 1.09542 24.4426C0.893316 24.4734 0.701439 24.5516 0.535606 24.6707C0.369773 24.7899 0.234731 24.9466 0.141609 25.128C0.0484871 25.3093 -4.91992e-05 25.5101 3.74229e-08 25.7139V28.9847C0.00472083 32.9823 1.3693 36.8602 3.87097 39.9854C4.0561 40.213 4.25656 40.4278 4.47097 40.6282C4.43742 40.6372 4.40258 40.6424 4.36903 40.6514L2.26452 41.176C2.08804 41.2197 1.92283 41.3002 1.77975 41.412C1.63666 41.5239 1.51891 41.6646 1.43424 41.825C1.34956 41.9853 1.29986 42.1617 1.2884 42.3426C1.27694 42.5235 1.30398 42.7047 1.36774 42.8744L2.14194 44.9431C2.95612 47.0843 4.28398 48.9944 6.00957 50.5065C7.73515 52.0186 9.806 53.0868 12.0413 53.6179C11.657 53.8753 11.2834 54.1481 10.9213 54.4356L9.50194 55.5619C9.35077 55.6823 9.22873 55.8351 9.14487 56.009C9.061 56.1828 9.01746 56.3732 9.01746 56.566C9.01746 56.7589 9.061 56.9493 9.14487 57.1231C9.22873 57.2969 9.35077 57.4497 9.50194 57.5702L10.9213 58.6965C14.4156 61.4776 18.7536 62.9948 23.2258 62.9998C23.8941 62.9911 24.5569 62.8774 25.1897 62.6629C24.393 64.4584 23.8443 66.3533 23.5587 68.2957L23.2387 70.5328C23.2126 70.7151 23.2262 70.9009 23.2784 71.0776C23.3307 71.2542 23.4204 71.4176 23.5415 71.5567C23.6627 71.6958 23.8124 71.8074 23.9805 71.8838C24.1486 71.9603 24.3313 71.9998 24.5161 71.9998C24.5774 72 24.6387 71.9957 24.6994 71.987L26.9432 71.6668C31.6233 70.9913 35.9603 68.8308 39.311 65.5057C39.563 65.2466 39.7935 64.9676 40 64.6712C40.2076 64.9683 40.4384 65.2486 40.6903 65.5095C44.0408 68.834 48.3773 70.9941 53.0568 71.6694L55.3006 71.9895C55.3614 71.9974 55.4226 72.0008 55.4839 71.9998C55.6687 71.9998 55.8514 71.9603 56.0195 71.8838C56.1876 71.8074 56.3373 71.6958 56.4585 71.5567C56.5796 71.4176 56.6693 71.2542 56.7215 71.0776C56.7738 70.9009 56.7874 70.7151 56.7613 70.5328L56.4413 68.2957C56.1557 66.3533 55.607 64.4584 54.8103 62.6629C55.4431 62.8774 56.1059 62.9911 56.7742 62.9998C61.2426 62.9942 65.5771 61.479 69.0697 58.7016L70.489 57.5753C70.6402 57.4549 70.7622 57.3021 70.8461 57.1283C70.93 56.9544 70.9735 56.764 70.9735 56.5712C70.9735 56.3783 70.93 56.1879 70.8461 56.0141C70.7622 55.8403 70.6402 55.6875 70.489 55.567L69.0697 54.4407C68.7084 54.1514 68.3303 53.884 67.9497 53.623C70.185 53.092 72.2558 52.0238 73.9814 50.5116C75.707 48.9995 77.0348 47.0895 77.849 44.9483L78.6232 42.8795C78.6869 42.7094 78.7137 42.5277 78.7018 42.3465C78.69 42.1653 78.6397 41.9887 78.5544 41.8282C78.4691 41.6677 78.3506 41.5271 78.2068 41.4156C78.063 41.304 77.8971 41.2241 77.72 41.1811L75.6142 40.6565C75.5819 40.6475 75.5471 40.6424 75.5135 40.6347C75.7331 40.4323 75.9388 40.2153 76.129 39.9854C78.6313 36.8586 79.9959 32.9788 80 28.9796V25.7139C80 25.5102 79.9514 25.3095 79.8583 25.1282C79.7652 24.9469 79.6303 24.7903 79.4645 24.6712ZM22.1935 2.86789L22.3845 2.82161L22.5432 3.29475C23.1537 5.12192 23.3606 7.05898 23.1496 8.97324C22.9387 10.8875 22.315 12.7337 21.3213 14.3854L20.9832 14.946C20.602 15.5888 20.0296 16.0976 19.3453 16.4019C18.661 16.7062 17.8987 16.7909 17.1639 16.6444L20.5574 8.19206L18.16 7.23549L14.9419 15.252C14.46 14.6271 14.197 13.862 14.1935 13.0739C14.1914 10.7268 14.978 8.44656 16.4279 6.5968C17.8779 4.74703 19.9076 3.43428 22.1935 2.86789ZM7.31871 16.089L8.32903 13.5689L10.7806 15.3085C12.2348 16.3475 13.4198 17.7165 14.2377 19.3023C15.0555 20.8881 15.4827 22.6452 15.4839 24.4282C15.484 24.9403 15.3813 25.4474 15.1819 25.9195C14.9824 26.3915 14.6903 26.8191 14.3226 27.177L11.5458 18.879L9.09419 19.6916L11.9561 28.2506C11.84 28.2609 11.7265 28.2853 11.6077 28.2853C11.0071 28.2836 10.415 28.1435 9.87774 27.8758C9.3405 27.6081 8.87271 27.2202 8.51097 26.7424C7.17694 24.9592 6.45483 22.7952 6.45161 20.571C6.45012 19.0355 6.74448 17.5139 7.31871 16.089ZM2.58065 28.9847V27.4972L4.08387 27.9973C6.87837 28.929 9.41831 30.493 11.5045 32.5668C11.9495 33.0078 12.3022 33.5323 12.5423 34.1101C12.7824 34.6879 12.9051 35.3074 12.9032 35.9328C12.902 36.6843 12.6824 37.4193 12.271 38.0491L7.49677 31.3955L5.40258 32.8895L10.2335 39.6292C9.82608 39.7753 9.39689 39.8522 8.96387 39.8568C8.37299 39.8583 7.78945 39.7265 7.25695 39.4713C6.72444 39.2161 6.2568 38.8442 5.88903 38.3834C3.75054 35.7139 2.58418 32.4004 2.58065 28.9847ZM4.56774 44.0457L4.29677 43.3257L4.99871 43.1508C8.87211 42.0552 12.9928 42.1978 16.7806 43.5584C17.4437 43.8201 18.0262 44.2506 18.4698 44.8071C18.9134 45.3635 19.2026 46.0262 19.3084 46.729L9.40258 43.7718L8.66193 46.2353L18.8465 49.2799C18.4987 49.9271 17.9816 50.4685 17.3501 50.8467C16.7186 51.225 15.9962 51.4259 15.2594 51.4283C12.9367 51.421 10.6709 50.7113 8.76183 49.3931C6.85272 48.0748 5.39021 46.2101 4.56774 44.0457ZM12.5432 56.6997L12.3871 56.5712L12.5419 56.4426C15.5775 54.0314 19.3438 52.717 23.2258 52.714C24.0236 52.7173 24.8008 52.9661 25.4512 53.4264C26.1016 53.8867 26.5934 54.536 26.8594 55.2855H18.0645V57.8569H26.8594C26.5934 58.6064 26.1016 59.2556 25.4512 59.7159C24.8008 60.1762 24.0236 60.425 23.2258 60.4283C19.3442 60.425 15.5784 59.1106 12.5432 56.6997ZM37.4852 63.6941C34.5294 66.623 30.7061 68.5263 26.5806 69.1224L26.0387 69.1982L26.1161 68.6595C26.7139 64.5463 28.6271 60.7349 31.5716 57.7913C32.1012 57.251 32.7719 56.869 33.5079 56.6884C34.2439 56.5078 35.0159 56.5357 35.7368 56.7692L29.991 63.4485L31.9497 65.1199L37.8619 58.2465C38.4727 59.044 38.7715 60.0357 38.7026 61.0366C38.6338 62.0375 38.202 62.9793 37.4877 63.6864L37.4852 63.6941ZM53.4194 69.1224C49.2927 68.5257 45.4686 66.6205 42.5135 63.6889C41.7989 62.9822 41.3666 62.0404 41.2976 61.0395C41.2285 60.0385 41.5272 59.0467 42.1381 58.249L48.0503 65.1225L50.009 63.4511L44.2632 56.7717C44.9849 56.5389 45.7575 56.5118 46.4938 56.6935C47.2301 56.8753 47.9006 57.2587 48.4297 57.8003C51.3724 60.7407 53.2859 64.5477 53.8865 68.657L53.9639 69.197L53.4194 69.1224ZM67.4568 56.6997C64.4216 59.1106 60.6558 60.425 56.7742 60.4283C55.9764 60.425 55.1992 60.1762 54.5488 59.7159C53.8984 59.2556 53.4066 58.6064 53.1406 57.8569H61.9355V55.2855H53.1406C53.4066 54.536 53.8984 53.8867 54.5488 53.4264C55.1992 52.9661 55.9764 52.7173 56.7742 52.714C60.6558 52.7173 64.4216 54.0317 67.4568 56.4426L67.6116 56.5712L67.4568 56.6997ZM59.0206 14.9524L58.6826 14.3905C57.6889 12.7391 57.0652 10.8931 56.8543 8.97904C56.6433 7.06499 56.8502 5.12813 57.4606 3.30118L57.6194 2.82675L57.8103 2.87304C60.0947 3.43995 62.1229 4.75225 63.572 6.6009C65.0211 8.44955 65.8077 10.7282 65.8064 13.0739C65.8041 13.8616 65.5425 14.6267 65.0619 15.252L61.8439 7.23549L59.4464 8.19206L62.84 16.6444C62.1054 16.791 61.3431 16.7065 60.6588 16.4024C59.9746 16.0984 59.4021 15.5898 59.0206 14.9472V14.9524ZM69.2245 15.315L71.6761 13.5741L72.6865 16.0954C73.2584 17.5186 73.551 19.0379 73.5484 20.571C73.5437 22.7958 72.8197 24.9598 71.4839 26.7424C71.1221 27.2202 70.6543 27.6081 70.1171 27.8758C69.5799 28.1435 68.9877 28.2836 68.3871 28.2853C68.2684 28.2853 68.1548 28.2609 68.0387 28.2506L70.9006 19.6916L68.449 18.879L65.6774 27.177C65.3097 26.8191 65.0176 26.3915 64.8181 25.9195C64.6187 25.4474 64.516 24.9403 64.5161 24.4282C64.5177 22.6449 64.9456 20.8876 65.7644 19.302C66.5831 17.7163 67.7693 16.3478 69.2245 15.3098V15.315ZM75.7032 43.3283L75.4323 44.0483C74.6094 46.2122 73.1467 48.0764 71.2376 49.3941C69.3285 50.7119 67.063 51.4212 64.7406 51.4283C64.0034 51.4256 63.2807 51.224 62.6492 50.8451C62.0177 50.4662 61.5008 49.924 61.1535 49.276L71.3381 46.2314L70.5974 43.768L60.6916 46.7251C60.7987 46.0224 61.0891 45.3599 61.5338 44.8042C61.9786 44.2484 62.562 43.8188 63.2258 43.5584C65.0968 42.8111 67.094 42.4274 69.1097 42.4282C71.0958 42.4286 73.0744 42.6712 75.0013 43.1508L75.7032 43.3283ZM77.4194 28.9847C77.4157 32.4002 76.2498 35.7134 74.1123 38.3834C73.7441 38.8441 73.2762 39.2159 72.7435 39.4711C72.2108 39.7262 71.6272 39.8581 71.0361 39.8568C70.6031 39.8522 70.1739 39.7753 69.7664 39.6292L74.5974 32.8895L72.4994 31.3955L67.7252 38.0491C67.3151 37.4189 67.0968 36.6839 67.0968 35.9328C67.0949 35.3074 67.2176 34.6879 67.4577 34.1101C67.6978 33.5323 68.0505 33.0078 68.4955 32.5668C70.5817 30.493 73.1216 28.929 75.9161 27.9973L77.4194 27.4972V28.9847Z" fill="#C5C7C4"/>
</svg>
