<svg width="13" height="13" viewBox="0 0 13 13" fill="none" xmlns="http://www.w3.org/2000/svg">
<path d="M9.47917 1.625C10.2693 1.625 11.0271 1.93888 11.5858 2.49758C12.1445 3.05628 12.4583 3.81404 12.4583 4.60417C12.4583 5.81967 11.8257 6.99508 10.8815 7.22204C10.517 7.30979 10.2272 7.77725 10.2895 8.31079C10.3729 9.02471 11.0186 9.74621 12.2975 10.315C12.5824 10.4417 12.4632 10.8702 12.1539 10.8312C8.82104 10.4141 6.51083 8.24146 6.5 5.1675C6.5 3.05338 7.74908 1.625 9.47917 1.625ZM2.97917 1.625C3.76929 1.625 4.52705 1.93888 5.08576 2.49758C5.64446 3.05628 5.95833 3.81404 5.95833 4.60417C5.95833 5.81967 5.32567 6.99508 4.38154 7.22204C4.017 7.30979 3.72721 7.77725 3.7895 8.31079C3.87292 9.02471 4.51858 9.74621 5.79746 10.315C6.08238 10.4417 5.96321 10.8702 5.65392 10.8312C2.32104 10.4141 0.0108333 8.24146 0 5.1675C0 3.05338 1.24908 1.625 2.97917 1.625Z" fill="#C19A6B"/>
</svg>
